<svg width="5760" height="1250" viewBox="0 0 5760 1250" fill="none" xmlns="http://www.w3.org/2000/svg">
<path d="M0 1228.88V42.375H461.04C558.22 42.375 638.45 58.76 701.73 91.53C766.14 124.3 814.165 169.5 845.805 227.13C877.445 283.63 893.265 347.475 893.265 418.665C893.265 485.335 878.01 546.92 847.5 603.42C816.99 659.92 770.095 705.685 706.815 740.715C643.535 775.745 561.61 793.26 461.04 793.26H254.25V1228.88H0ZM254.25 589.86H444.09C510.76 589.86 558.785 574.605 588.165 544.095C618.675 512.455 633.93 470.645 633.93 418.665C633.93 365.555 618.675 324.31 588.165 294.93C558.785 264.42 510.76 249.165 444.09 249.165H254.25V589.86Z" fill="#1A1A1A"/>
<path d="M1270.59 1249.22C1188.1 1249.22 1114.08 1230.01 1048.54 1191.59C983.003 1153.17 931.023 1100.62 892.603 1033.95C854.183 966.15 834.973 889.31 834.973 803.43C834.973 715.29 854.183 637.885 892.603 571.215C931.023 503.415 983.003 450.305 1048.54 411.885C1115.21 373.465 1189.23 354.255 1270.59 354.255C1354.21 354.255 1428.79 373.465 1494.33 411.885C1559.87 450.305 1611.85 503.415 1650.27 571.215C1688.69 637.885 1707.9 714.725 1707.9 801.735C1707.9 888.745 1688.69 966.15 1650.27 1033.95C1611.85 1100.62 1559.87 1153.17 1494.33 1191.59C1428.79 1230.01 1354.21 1249.22 1270.59 1249.22ZM1270.59 1028.86C1304.49 1028.86 1334.43 1020.39 1360.42 1003.44C1387.54 986.49 1409.01 961.065 1424.83 927.165C1440.65 893.265 1448.56 851.455 1448.56 801.735C1448.56 752.015 1440.65 710.205 1424.83 676.305C1409.01 642.405 1388.11 616.98 1362.12 600.03C1336.13 583.08 1306.18 574.605 1272.28 574.605C1238.38 574.605 1207.87 583.08 1180.75 600.03C1154.76 616.98 1133.86 642.405 1118.04 676.305C1102.22 710.205 1094.31 752.015 1094.31 801.735C1094.31 851.455 1102.22 893.265 1118.04 927.165C1133.86 961.065 1154.76 986.49 1180.75 1003.44C1207.87 1020.39 1237.82 1028.86 1270.59 1028.86Z" fill="#1A1A1A"/>
<path d="M1750.67 1228.88V374.595H1976.11L1999.84 530.535C2022.44 494.375 2048.99 463.3 2079.5 437.31C2110.01 411.32 2145.04 390.98 2184.59 376.29C2225.27 361.6 2401.1 354.255 2447.43 354.255V623.76H2230.36C2196.46 623.76 2165.38 627.715 2137.13 635.625C2110.01 642.405 2086.28 654.27 2065.94 671.22C2046.73 688.17 2031.48 711.335 2020.18 740.715C2010.01 768.965 2004.92 804.56 2004.92 847.5V1228.88H1750.67Z" fill="#1A1A1A"/>
<path d="M2709.91 1228.88C2647.76 1228.88 2592.95 1219.27 2545.49 1200.06C2498.03 1179.72 2461.31 1146.95 2435.32 1101.75C2409.33 1056.55 2396.33 994.965 2396.33 916.995V586.47H2250.56V374.595H2396.33L2423.45 133.905H2650.58V374.595H2869.24V586.47H2650.58V920.385C2650.58 954.285 2657.93 978.58 2672.62 993.27C2688.44 1006.83 2714.99 1013.61 2752.28 1013.61H2869.24V1228.88H2709.91Z" fill="#1A1A1A"/>
<path d="M2947.74 1228.88V313.575C2947.74 238.995 2960.73 179.67 2986.72 135.6C3012.71 90.4 3048.87 58.195 3095.2 38.985C3142.66 18.645 3196.9 8.47499 3257.92 8.47499H3366.4V223.74H3298.6C3263.57 223.74 3238.71 230.52 3224.02 244.08C3209.33 257.64 3201.99 280.805 3201.99 313.575V1228.88H2947.74ZM2835.87 586.47V374.595H3378.27V586.47H2835.87Z" fill="#1A1A1A"/>
<path d="M3780.58 1249.22C3698.09 1249.22 3624.07 1230.01 3558.53 1191.59C3492.99 1153.17 3441.01 1100.62 3402.59 1033.95C3364.17 966.15 3344.96 889.31 3344.96 803.43C3344.96 715.29 3364.17 637.885 3402.59 571.215C3441.01 503.415 3492.99 450.305 3558.53 411.885C3625.2 373.465 3699.22 354.255 3780.58 354.255C3864.2 354.255 3938.78 373.465 4004.32 411.885C4069.86 450.305 4121.84 503.415 4160.26 571.215C4198.68 637.885 4217.89 714.725 4217.89 801.735C4217.89 888.745 4198.68 966.15 4160.26 1033.95C4121.84 1100.62 4069.86 1153.17 4004.32 1191.59C3938.78 1230.01 3864.2 1249.22 3780.58 1249.22ZM3780.58 1028.86C3814.48 1028.86 3844.42 1020.39 3870.41 1003.44C3897.53 986.49 3919 961.065 3934.82 927.165C3950.64 893.265 3958.55 851.455 3958.55 801.735C3958.55 752.015 3950.64 710.205 3934.82 676.305C3919 642.405 3898.1 616.98 3872.11 600.03C3846.12 583.08 3816.17 574.605 3782.27 574.605C3748.37 574.605 3717.86 583.08 3690.74 600.03C3664.75 616.98 3643.85 642.405 3628.03 676.305C3612.21 710.205 3604.3 752.015 3604.3 801.735C3604.3 851.455 3612.21 893.265 3628.03 927.165C3643.85 961.065 3664.75 986.49 3690.74 1003.44C3717.86 1020.39 3747.81 1028.86 3780.58 1028.86Z" fill="#1A1A1A"/>
<path d="M4260.66 1228.88V8.47499H4514.91V1228.88H4260.66Z" fill="#1A1A1A"/>
<path d="M4586.56 1228.88V374.595H4840.81V1228.88H4586.56ZM4713.69 276.285C4668.49 276.285 4631.76 263.29 4603.51 237.3C4575.26 211.31 4561.14 178.54 4561.14 138.99C4561.14 98.31 4575.26 64.975 4603.51 38.985C4631.76 12.995 4668.49 0 4713.69 0C4760.02 0 4797.31 12.995 4825.56 38.985C4854.94 64.975 4869.63 98.31 4869.63 138.99C4869.63 178.54 4854.94 211.31 4825.56 237.3C4797.31 263.29 4760.02 276.285 4713.69 276.285Z" fill="#1A1A1A"/>
<path d="M5322.5 1249.22C5240.01 1249.22 5165.99 1230.01 5100.45 1191.59C5034.91 1153.17 4982.93 1100.62 4944.51 1033.95C4906.09 966.15 4886.88 889.31 4886.88 803.43C4886.88 715.29 4906.09 637.885 4944.51 571.215C4982.93 503.415 5034.91 450.305 5100.45 411.885C5167.12 373.465 5241.14 354.255 5322.5 354.255C5406.12 354.255 5480.7 373.465 5546.24 411.885C5611.78 450.305 5663.76 503.415 5702.18 571.215C5740.6 637.885 5759.81 714.725 5759.81 801.735C5759.81 888.745 5740.6 966.15 5702.18 1033.95C5663.76 1100.62 5611.78 1153.17 5546.24 1191.59C5480.7 1230.01 5406.12 1249.22 5322.5 1249.22ZM5322.5 1028.86C5356.4 1028.86 5386.34 1020.39 5412.33 1003.44C5439.45 986.49 5460.92 961.065 5476.74 927.165C5492.56 893.265 5500.47 851.455 5500.47 801.735C5500.47 752.015 5492.56 710.205 5476.74 676.305C5460.92 642.405 5440.02 616.98 5414.03 600.03C5388.04 583.08 5358.09 574.605 5324.19 574.605C5290.29 574.605 5259.78 583.08 5232.66 600.03C5206.67 616.98 5185.77 642.405 5169.95 676.305C5154.13 710.205 5146.22 752.015 5146.22 801.735C5146.22 851.455 5154.13 893.265 5169.95 927.165C5185.77 961.065 5206.67 986.49 5232.66 1003.44C5259.78 1020.39 5289.73 1028.86 5322.5 1028.86Z" fill="#1A1A1A"/>
</svg>
